<?xml version="1.0" encoding="windows-1252" standalone="no"?>
<svg xmlns="http://www.w3.org/2000/svg" xmlns:xlink="http://www.w3.org/1999/xlink" contentStyleType="text/css" height="842px" preserveAspectRatio="none" style="width:1445px;height:842px;background:#FFFFFF;" version="1.1" viewBox="0 0 1445 842" width="1445px" zoomAndPan="magnify"><defs/><g><line style="stroke:#181818;stroke-width:0.5;stroke-dasharray:5.0,5.0;" x1="23" x2="23" y1="81.2969" y2="761.9531"/><line style="stroke:#181818;stroke-width:0.5;stroke-dasharray:5.0,5.0;" x1="154" x2="154" y1="81.2969" y2="761.9531"/><line style="stroke:#181818;stroke-width:0.5;stroke-dasharray:5.0,5.0;" x1="273.5" x2="273.5" y1="81.2969" y2="761.9531"/><line style="stroke:#181818;stroke-width:0.5;stroke-dasharray:5.0,5.0;" x1="402.5" x2="402.5" y1="81.2969" y2="761.9531"/><line style="stroke:#181818;stroke-width:0.5;stroke-dasharray:5.0,5.0;" x1="555.5" x2="555.5" y1="81.2969" y2="761.9531"/><line style="stroke:#181818;stroke-width:0.5;stroke-dasharray:5.0,5.0;" x1="709.5" x2="709.5" y1="81.2969" y2="761.9531"/><line style="stroke:#181818;stroke-width:0.5;stroke-dasharray:5.0,5.0;" x1="837.5" x2="837.5" y1="81.2969" y2="761.9531"/><line style="stroke:#181818;stroke-width:0.5;stroke-dasharray:5.0,5.0;" x1="938.5" x2="938.5" y1="81.2969" y2="761.9531"/><line style="stroke:#181818;stroke-width:0.5;stroke-dasharray:5.0,5.0;" x1="1042.5" x2="1042.5" y1="81.2969" y2="761.9531"/><line style="stroke:#181818;stroke-width:0.5;stroke-dasharray:5.0,5.0;" x1="1130.5" x2="1130.5" y1="81.2969" y2="761.9531"/><line style="stroke:#181818;stroke-width:0.5;stroke-dasharray:5.0,5.0;" x1="1235" x2="1235" y1="81.2969" y2="761.9531"/><line style="stroke:#181818;stroke-width:0.5;stroke-dasharray:5.0,5.0;" x1="1380.5" x2="1380.5" y1="81.2969" y2="761.9531"/><text fill="#000000" font-family="sans-serif" font-size="14" lengthAdjust="spacing" textLength="31" x="5" y="77.9951">User</text><ellipse cx="23.5" cy="13.5" fill="#E2E2F0" rx="8" ry="8" style="stroke:#181818;stroke-width:0.5;"/><path d="M23.5,21.5 L23.5,48.5 M10.5,29.5 L36.5,29.5 M23.5,48.5 L10.5,63.5 M23.5,48.5 L36.5,63.5 " fill="none" style="stroke:#181818;stroke-width:0.5;"/><text fill="#000000" font-family="sans-serif" font-size="14" lengthAdjust="spacing" textLength="31" x="5" y="773.9482">User</text><ellipse cx="23.5" cy="785.75" fill="#E2E2F0" rx="8" ry="8" style="stroke:#181818;stroke-width:0.5;"/><path d="M23.5,793.75 L23.5,820.75 M10.5,801.75 L36.5,801.75 M23.5,820.75 L10.5,835.75 M23.5,820.75 L36.5,835.75 " fill="none" style="stroke:#181818;stroke-width:0.5;"/><rect fill="#E2E2F0" height="30.2969" rx="2.5" ry="2.5" style="stroke:#181818;stroke-width:0.5;" width="103" x="103" y="50"/><text fill="#000000" font-family="sans-serif" font-size="14" lengthAdjust="spacing" textLength="89" x="110" y="69.9951">startSession</text><rect fill="#E2E2F0" height="30.2969" rx="2.5" ry="2.5" style="stroke:#181818;stroke-width:0.5;" width="103" x="103" y="760.9531"/><text fill="#000000" font-family="sans-serif" font-size="14" lengthAdjust="spacing" textLength="89" x="110" y="780.9482">startSession</text><rect fill="#E2E2F0" height="30.2969" rx="2.5" ry="2.5" style="stroke:#181818;stroke-width:0.5;" width="84" x="231.5" y="50"/><text fill="#000000" font-family="sans-serif" font-size="14" lengthAdjust="spacing" textLength="70" x="238.5" y="69.9951">AppState</text><rect fill="#E2E2F0" height="30.2969" rx="2.5" ry="2.5" style="stroke:#181818;stroke-width:0.5;" width="84" x="231.5" y="760.9531"/><text fill="#000000" font-family="sans-serif" font-size="14" lengthAdjust="spacing" textLength="70" x="238.5" y="780.9482">AppState</text><rect fill="#E2E2F0" height="30.2969" rx="2.5" ry="2.5" style="stroke:#181818;stroke-width:0.5;" width="155" x="325.5" y="50"/><text fill="#000000" font-family="sans-serif" font-size="14" lengthAdjust="spacing" textLength="141" x="332.5" y="69.9951">BreathPacerWidget</text><rect fill="#E2E2F0" height="30.2969" rx="2.5" ry="2.5" style="stroke:#181818;stroke-width:0.5;" width="155" x="325.5" y="760.9531"/><text fill="#000000" font-family="sans-serif" font-size="14" lengthAdjust="spacing" textLength="141" x="332.5" y="780.9482">BreathPacerWidget</text><rect fill="#E2E2F0" height="30.2969" rx="2.5" ry="2.5" style="stroke:#181818;stroke-width:0.5;" width="131" x="490.5" y="50"/><text fill="#000000" font-family="sans-serif" font-size="14" lengthAdjust="spacing" textLength="117" x="497.5" y="69.9951">HRContactLabel</text><rect fill="#E2E2F0" height="30.2969" rx="2.5" ry="2.5" style="stroke:#181818;stroke-width:0.5;" width="131" x="490.5" y="760.9531"/><text fill="#000000" font-family="sans-serif" font-size="14" lengthAdjust="spacing" textLength="117" x="497.5" y="780.9482">HRContactLabel</text><rect fill="#E2E2F0" height="30.2969" rx="2.5" ry="2.5" style="stroke:#181818;stroke-width:0.5;" width="156" x="631.5" y="50"/><text fill="#000000" font-family="sans-serif" font-size="14" lengthAdjust="spacing" textLength="142" x="638.5" y="69.9951">CoherenceIndicator</text><rect fill="#E2E2F0" height="30.2969" rx="2.5" ry="2.5" style="stroke:#181818;stroke-width:0.5;" width="156" x="631.5" y="760.9531"/><text fill="#000000" font-family="sans-serif" font-size="14" lengthAdjust="spacing" textLength="142" x="638.5" y="780.9482">CoherenceIndicator</text><rect fill="#E2E2F0" height="30.2969" rx="2.5" ry="2.5" style="stroke:#181818;stroke-width:0.5;" width="81" x="797.5" y="50"/><text fill="#000000" font-family="sans-serif" font-size="14" lengthAdjust="spacing" textLength="67" x="804.5" y="69.9951">hrvGraph</text><rect fill="#E2E2F0" height="30.2969" rx="2.5" ry="2.5" style="stroke:#181818;stroke-width:0.5;" width="81" x="797.5" y="760.9531"/><text fill="#000000" font-family="sans-serif" font-size="14" lengthAdjust="spacing" textLength="67" x="804.5" y="780.9482">hrvGraph</text><rect fill="#E2E2F0" height="30.2969" rx="2.5" ry="2.5" style="stroke:#181818;stroke-width:0.5;" width="100" x="888.5" y="50"/><text fill="#000000" font-family="sans-serif" font-size="14" lengthAdjust="spacing" textLength="86" x="895.5" y="69.9951">PulseSensor</text><rect fill="#E2E2F0" height="30.2969" rx="2.5" ry="2.5" style="stroke:#181818;stroke-width:0.5;" width="100" x="888.5" y="760.9531"/><text fill="#000000" font-family="sans-serif" font-size="14" lengthAdjust="spacing" textLength="86" x="895.5" y="780.9482">PulseSensor</text><rect fill="#E2E2F0" height="30.2969" rx="2.5" ry="2.5" style="stroke:#181818;stroke-width:0.5;" width="88" x="998.5" y="50"/><text fill="#000000" font-family="sans-serif" font-size="14" lengthAdjust="spacing" textLength="74" x="1005.5" y="69.9951">HRVGraph</text><rect fill="#E2E2F0" height="30.2969" rx="2.5" ry="2.5" style="stroke:#181818;stroke-width:0.5;" width="88" x="998.5" y="760.9531"/><text fill="#000000" font-family="sans-serif" font-size="14" lengthAdjust="spacing" textLength="74" x="1005.5" y="780.9482">HRVGraph</text><rect fill="#E2E2F0" height="30.2969" rx="2.5" ry="2.5" style="stroke:#181818;stroke-width:0.5;" width="68" x="1096.5" y="50"/><text fill="#000000" font-family="sans-serif" font-size="14" lengthAdjust="spacing" textLength="54" x="1103.5" y="69.9951">Session</text><rect fill="#E2E2F0" height="30.2969" rx="2.5" ry="2.5" style="stroke:#181818;stroke-width:0.5;" width="68" x="1096.5" y="760.9531"/><text fill="#000000" font-family="sans-serif" font-size="14" lengthAdjust="spacing" textLength="54" x="1103.5" y="780.9482">Session</text><rect fill="#E2E2F0" height="30.2969" rx="2.5" ry="2.5" style="stroke:#181818;stroke-width:0.5;" width="27" x="1222" y="50"/><text fill="#000000" font-family="sans-serif" font-size="14" lengthAdjust="spacing" textLength="13" x="1229" y="69.9951">UI</text><rect fill="#E2E2F0" height="30.2969" rx="2.5" ry="2.5" style="stroke:#181818;stroke-width:0.5;" width="27" x="1222" y="760.9531"/><text fill="#000000" font-family="sans-serif" font-size="14" lengthAdjust="spacing" textLength="13" x="1229" y="780.9482">UI</text><rect fill="#E2E2F0" height="30.2969" rx="2.5" ry="2.5" style="stroke:#181818;stroke-width:0.5;" width="118" x="1321.5" y="50"/><text fill="#000000" font-family="sans-serif" font-size="14" lengthAdjust="spacing" textLength="104" x="1328.5" y="69.9951">BatterySensor</text><rect fill="#E2E2F0" height="30.2969" rx="2.5" ry="2.5" style="stroke:#181818;stroke-width:0.5;" width="118" x="1321.5" y="760.9531"/><text fill="#000000" font-family="sans-serif" font-size="14" lengthAdjust="spacing" textLength="104" x="1328.5" y="780.9482">BatterySensor</text><polygon fill="#181818" points="142.5,108.4297,152.5,112.4297,142.5,116.4297,146.5,112.4297" style="stroke:#181818;stroke-width:1.0;"/><line style="stroke:#181818;stroke-width:1.0;" x1="23.5" x2="148.5" y1="112.4297" y2="112.4297"/><text fill="#000000" font-family="sans-serif" font-size="13" lengthAdjust="spacing" textLength="107" x="30.5" y="107.3638">start button click</text><polygon fill="#181818" points="261.5,137.5625,271.5,141.5625,261.5,145.5625,265.5,141.5625" style="stroke:#181818;stroke-width:1.0;"/><line style="stroke:#181818;stroke-width:1.0;" x1="154.5" x2="267.5" y1="141.5625" y2="141.5625"/><text fill="#000000" font-family="sans-serif" font-size="13" lengthAdjust="spacing" textLength="95" x="161.5" y="136.4966">start_session()</text><polygon fill="#181818" points="391,166.6953,401,170.6953,391,174.6953,395,170.6953" style="stroke:#181818;stroke-width:1.0;"/><line style="stroke:#181818;stroke-width:1.0;" x1="154.5" x2="397" y1="170.6953" y2="170.6953"/><text fill="#000000" font-family="sans-serif" font-size="13" lengthAdjust="spacing" textLength="44" x="161.5" y="165.6294">show()</text><polygon fill="#181818" points="544,195.8281,554,199.8281,544,203.8281,548,199.8281" style="stroke:#181818;stroke-width:1.0;"/><line style="stroke:#181818;stroke-width:1.0;" x1="154.5" x2="550" y1="199.8281" y2="199.8281"/><text fill="#000000" font-family="sans-serif" font-size="13" lengthAdjust="spacing" textLength="44" x="161.5" y="194.7622">show()</text><polygon fill="#181818" points="697.5,224.9609,707.5,228.9609,697.5,232.9609,701.5,228.9609" style="stroke:#181818;stroke-width:1.0;"/><line style="stroke:#181818;stroke-width:1.0;" x1="154.5" x2="703.5" y1="228.9609" y2="228.9609"/><text fill="#000000" font-family="sans-serif" font-size="13" lengthAdjust="spacing" textLength="44" x="161.5" y="223.895">show()</text><polygon fill="#181818" points="826,254.0938,836,258.0938,826,262.0938,830,258.0938" style="stroke:#181818;stroke-width:1.0;"/><line style="stroke:#181818;stroke-width:1.0;" x1="154.5" x2="832" y1="258.0938" y2="258.0938"/><text fill="#000000" font-family="sans-serif" font-size="13" lengthAdjust="spacing" textLength="41" x="161.5" y="253.0278">clear()</text><polygon fill="#181818" points="926.5,283.2266,936.5,287.2266,926.5,291.2266,930.5,287.2266" style="stroke:#181818;stroke-width:1.0;"/><line style="stroke:#181818;stroke-width:1.0;" x1="154.5" x2="932.5" y1="287.2266" y2="287.2266"/><text fill="#000000" font-family="sans-serif" font-size="13" lengthAdjust="spacing" textLength="40" x="161.5" y="282.1606">start()</text><line style="stroke:#181818;stroke-width:1.0;" x1="938.5" x2="980.5" y1="316.3594" y2="316.3594"/><line style="stroke:#181818;stroke-width:1.0;" x1="980.5" x2="980.5" y1="316.3594" y2="329.3594"/><line style="stroke:#181818;stroke-width:1.0;" x1="939.5" x2="980.5" y1="329.3594" y2="329.3594"/><polygon fill="#181818" points="949.5,325.3594,939.5,329.3594,949.5,333.3594,945.5,329.3594" style="stroke:#181818;stroke-width:1.0;"/><text fill="#000000" font-family="sans-serif" font-size="13" lengthAdjust="spacing" textLength="67" x="945.5" y="311.2935">on_timer()</text><line style="stroke:#181818;stroke-width:1.0;" x1="938.5" x2="980.5" y1="358.4922" y2="358.4922"/><line style="stroke:#181818;stroke-width:1.0;" x1="980.5" x2="980.5" y1="358.4922" y2="371.4922"/><line style="stroke:#181818;stroke-width:1.0;" x1="939.5" x2="980.5" y1="371.4922" y2="371.4922"/><polygon fill="#181818" points="949.5,367.4922,939.5,371.4922,949.5,375.4922,945.5,371.4922" style="stroke:#181818;stroke-width:1.0;"/><text fill="#000000" font-family="sans-serif" font-size="13" lengthAdjust="spacing" textLength="89" x="945.5" y="353.4263">readLineInto()</text><polygon fill="#181818" points="1030.5,396.625,1040.5,400.625,1030.5,404.625,1034.5,400.625" style="stroke:#181818;stroke-width:1.0;"/><line style="stroke:#181818;stroke-width:1.0;" x1="938.5" x2="1036.5" y1="400.625" y2="400.625"/><text fill="#000000" font-family="sans-serif" font-size="13" lengthAdjust="spacing" textLength="66" x="945.5" y="395.5591">addPoint()</text><polygon fill="#181818" points="284.5,425.7578,274.5,429.7578,284.5,433.7578,280.5,429.7578" style="stroke:#181818;stroke-width:1.0;"/><line style="stroke:#181818;stroke-width:1.0;" x1="278.5" x2="937.5" y1="429.7578" y2="429.7578"/><text fill="#000000" font-family="sans-serif" font-size="13" lengthAdjust="spacing" textLength="105" x="290.5" y="424.6919">record_sample()</text><polygon fill="#181818" points="1118.5,454.8906,1128.5,458.8906,1118.5,462.8906,1122.5,458.8906" style="stroke:#181818;stroke-width:1.0;"/><line style="stroke:#181818;stroke-width:1.0;" x1="938.5" x2="1124.5" y1="458.8906" y2="458.8906"/><text fill="#000000" font-family="sans-serif" font-size="13" lengthAdjust="spacing" textLength="89" x="945.5" y="453.8247">add_reading()</text><line style="stroke:#181818;stroke-width:1.0;" x1="1130.5" x2="1172.5" y1="488.0234" y2="488.0234"/><line style="stroke:#181818;stroke-width:1.0;" x1="1172.5" x2="1172.5" y1="488.0234" y2="501.0234"/><line style="stroke:#181818;stroke-width:1.0;" x1="1131.5" x2="1172.5" y1="501.0234" y2="501.0234"/><polygon fill="#181818" points="1141.5,497.0234,1131.5,501.0234,1141.5,505.0234,1137.5,501.0234" style="stroke:#181818;stroke-width:1.0;"/><text fill="#000000" font-family="sans-serif" font-size="13" lengthAdjust="spacing" textLength="91" x="1137.5" y="482.9575">update_data()</text><polygon fill="#181818" points="1223.5,526.1563,1233.5,530.1563,1223.5,534.1563,1227.5,530.1563" style="stroke:#181818;stroke-width:1.0;"/><line style="stroke:#181818;stroke-width:1.0;" x1="938.5" x2="1229.5" y1="530.1563" y2="530.1563"/><text fill="#000000" font-family="sans-serif" font-size="13" lengthAdjust="spacing" textLength="116" x="945.5" y="525.0903">display_changes()</text><line style="stroke:#181818;stroke-width:1.0;" x1="938.5" x2="980.5" y1="559.2891" y2="559.2891"/><line style="stroke:#181818;stroke-width:1.0;" x1="980.5" x2="980.5" y1="559.2891" y2="572.2891"/><line style="stroke:#181818;stroke-width:1.0;" x1="939.5" x2="980.5" y1="572.2891" y2="572.2891"/><polygon fill="#181818" points="949.5,568.2891,939.5,572.2891,949.5,576.2891,945.5,572.2891" style="stroke:#181818;stroke-width:1.0;"/><text fill="#000000" font-family="sans-serif" font-size="13" lengthAdjust="spacing" textLength="67" x="945.5" y="554.2231">on_timer()</text><line style="stroke:#181818;stroke-width:1.0;" x1="938.5" x2="980.5" y1="601.4219" y2="601.4219"/><line style="stroke:#181818;stroke-width:1.0;" x1="980.5" x2="980.5" y1="601.4219" y2="614.4219"/><line style="stroke:#181818;stroke-width:1.0;" x1="939.5" x2="980.5" y1="614.4219" y2="614.4219"/><polygon fill="#181818" points="949.5,610.4219,939.5,614.4219,949.5,618.4219,945.5,614.4219" style="stroke:#181818;stroke-width:1.0;"/><text fill="#000000" font-family="sans-serif" font-size="13" lengthAdjust="spacing" textLength="89" x="945.5" y="596.356">readLineInto()</text><polygon fill="#181818" points="1246.5,639.5547,1236.5,643.5547,1246.5,647.5547,1242.5,643.5547" style="stroke:#181818;stroke-width:1.0;"/><line style="stroke:#181818;stroke-width:1.0;" x1="1240.5" x2="1379.5" y1="643.5547" y2="643.5547"/><text fill="#000000" font-family="sans-serif" font-size="13" lengthAdjust="spacing" textLength="121" x="1252.5" y="638.4888">fully_discharched()</text><line style="stroke:#181818;stroke-width:1.0;" x1="1235.5" x2="1277.5" y1="672.6875" y2="672.6875"/><line style="stroke:#181818;stroke-width:1.0;" x1="1277.5" x2="1277.5" y1="672.6875" y2="685.6875"/><line style="stroke:#181818;stroke-width:1.0;" x1="1236.5" x2="1277.5" y1="685.6875" y2="685.6875"/><polygon fill="#181818" points="1246.5,681.6875,1236.5,685.6875,1246.5,689.6875,1242.5,685.6875" style="stroke:#181818;stroke-width:1.0;"/><text fill="#000000" font-family="sans-serif" font-size="13" lengthAdjust="spacing" textLength="73" x="1242.5" y="667.6216">shutdown()</text><polygon fill="#181818" points="284.5,710.8203,274.5,714.8203,284.5,718.8203,280.5,714.8203" style="stroke:#181818;stroke-width:1.0;"/><line style="stroke:#181818;stroke-width:1.0;" x1="278.5" x2="1379.5" y1="714.8203" y2="714.8203"/><text fill="#000000" font-family="sans-serif" font-size="13" lengthAdjust="spacing" textLength="93" x="290.5" y="709.7544">stop_session()</text><polygon fill="#181818" points="949.5,739.9531,939.5,743.9531,949.5,747.9531,945.5,743.9531" style="stroke:#181818;stroke-width:1.0;"/><line style="stroke:#181818;stroke-width:1.0;" x1="943.5" x2="1379.5" y1="743.9531" y2="743.9531"/><text fill="#000000" font-family="sans-serif" font-size="13" lengthAdjust="spacing" textLength="38" x="955.5" y="738.8872">stop()</text><!--SRC=[jPAzRW8n3CVtUueROUWBt50960eI0-94EqOcSKdKa4IEhuYthwzGUcsERbqi9Vxvxy-PvaZrBYDLLM_hXySwCn2tcBEBeRcywdt774EjlTDlLJKa-eXPIYq3uvLM-UAQJ0joJWXiDw2HNfmv84k8ZQSHShbTnC2WUGrxz7UnHRH863IkWd4Qf9kxgANt9u9a6sa3WKQ8JUSpjXZofqhl5AWQ_1PG38hT4Nknlp3fsgnTa28vbkXo-tmj38pPH1UuPBv7JAWZ6PNXc3oMu6rnegNwl2uSX1fqUIEwP4HHYO5IPxTgQkDoyd1Msa8uOFwVOSo16UdyC_Dhv_rPINv9JTgY4N2t-l9csx69fp0MFRp5c0QdM92_jXtJPFe1]--></g></svg>